<?xml version="1.0" encoding="UTF-8"?>
<svg id="Calque_2" data-name="Calque 2" xmlns="http://www.w3.org/2000/svg" viewBox="0 0 451.72 123.17">
  <defs>
    <style>
      .cls-1 {
        fill: #1d1d1b;
      }

      .cls-2 {
        fill: #9ac43a;
      }
    </style>
  </defs>
  <g id="VECT">
    <g>
      <path class="cls-2" d="M34.26,1.36c.77,0,1.39.64,1.39,1.43v36.22c0,11.99-5.8,18.09-17.53,18.09C7.29,57.1.31,50.92.31,40.7v-3.49c0-.79.76-1.09,1.52-1.09l7.28-.07c.77,0,1.26.3,1.26,1.09v1.26c0,6.45,2.96,9.24,7.44,9.38,6.33.2,6.85-5.6,6.85-9.67l-.33-35.1c0-.79.62-1.43,1.39-1.43l8.53-.23Z"/>
      <path class="cls-2" d="M138.72,19.43l-7.87.06c-.65,0-1.22-.43-1.39-1.05-1.3-4.96-6.72-8.86-12.35-8.86-9.87,0-15.49,8.32-15.4,19.72,0,10.25,5.29,18.48,15.4,18.48,6.58,0,11.17-4.41,12.46-11.48.12-.68.72-1.17,1.41-1.17l8.29.11c.87,0,1.55.76,1.42,1.61-1.82,12.82-10.78,20.42-23.6,20.42-16.81,0-26.64-12.39-26.64-28.37S100.07.09,117.12.09c11.77,0,20.94,6.37,23.02,17.66.16.88-.52,1.69-1.41,1.69"/>
      <path class="cls-2" d="M85.45,2.78l-.08,6.9c0,.79-.63,1.43-1.42,1.43l-26.06-.06c-.78,0-1.42.64-1.42,1.43l.06,9.44c0,.79.63,1.43,1.42,1.43l23.88.26c.78,0,1.41.64,1.41,1.43l-.22,5.81c0,.79-.63,1.43-1.41,1.43l-23.9.04c-.78,0-1.41.64-1.41,1.43l.07,11.36c0,.79.63,1.43,1.42,1.43l26.86-.04c.78,0,1.41.64,1.41,1.43v6.69c0,.79-.64,1.43-1.42,1.43h-38.33c-.78,0-1.41-.64-1.41-1.43V2.78c0-.79.63-1.43,1.41-1.43h37.73c.78,0,1.41.64,1.41,1.43"/>
    </g>
    <g>
      <path class="cls-1" d="M178.2,1.3l8.63,37.12h.15L196.46,1.3h11.23l9.32,37.58h.15L226.09,1.3h11.76l-14.67,54.54h-11.92l-9.24-37.12h-.15l-9.09,37.12h-12.15L166.21,1.3h11.99Z"/>
      <path class="cls-1" d="M294.61,28.8c0,15.89-10.08,28.34-26.81,28.34s-26.81-12.45-26.81-28.34S250.92,0,267.8,0s26.81,12.3,26.81,28.8ZM267.8,47.05c10.16,0,14.82-8.33,14.82-18.26,0-10.46-4.66-18.71-14.9-18.71s-14.74,8.17-14.74,18.71,4.81,18.26,14.82,18.26Z"/>
      <path class="cls-1" d="M332.2,1.3c9.62,0,15.96,6.65,15.96,15.05,0,6.88-2.9,11.38-8.63,13.67v.15c7.64,2.14,7.87,10.54,8.1,15.66.23,5.19.92,8.25,2.14,10.01h-11.99c-.92-2.06-1.22-5.19-1.53-9.47-.54-7.64-1.83-11.84-9.4-11.84h-12.07v21.31h-11.99V1.3h29.41ZM328,25.97c5.04,0,8.17-2.06,8.17-7.79,0-5.42-2.98-7.56-8.25-7.56h-13.14v15.35h13.21Z"/>
      <path class="cls-1" d="M369.94,1.3v44.46h26.58v10.08h-38.58V1.3h11.99Z"/>
      <path class="cls-1" d="M426.62,1.3c15.12,0,24.9,9.78,24.9,26.96s-9.32,27.58-24.6,27.58h-23.68V1.3h23.37ZM425.85,45.75c7.49,0,13.67-4.66,13.67-16.42,0-12.99-5.73-17.95-15.74-17.95h-8.56v34.37h10.62Z"/>
    </g>
    <g>
      <path class="cls-1" d="M38.96,81.38c0,3.59-.84,6.57-2.44,9.17-1.99,3.13-4.66,5.58-10.31,9.17-7.49,4.74-10.16,7.26-12.22,10.16h25.28v9.32H0c0-6.8,2.44-12.07,7.1-16.5,3.44-3.21,7.71-6.04,13.6-9.93,4.28-2.83,7.41-6.03,7.41-10.54,0-4.81-3.06-8.25-8.02-8.25-5.35,0-8.4,4.74-8.48,12.3H1.22v-.99c0-12.38,7.49-20.62,19.4-20.62,9.85,0,18.33,6.34,18.33,16.73Z"/>
      <path class="cls-1" d="M81.73,92.22c0,18.41-6.87,28.03-19.71,28.03s-19.55-9.55-19.55-28.03,6.88-27.58,19.55-27.58,19.71,9.47,19.71,27.58ZM62.03,111.32c8.63,0,8.86-12.22,8.86-19.4s-.69-18.33-8.94-18.33-8.63,12.91-8.63,18.33c0,6.65.08,19.4,8.71,19.4Z"/>
      <path class="cls-1" d="M123.9,81.38c0,3.59-.84,6.57-2.44,9.17-1.99,3.13-4.66,5.58-10.31,9.17-7.49,4.74-10.16,7.26-12.22,10.16h25.28v9.32h-39.26c0-6.8,2.44-12.07,7.1-16.5,3.44-3.21,7.71-6.04,13.6-9.93,4.28-2.83,7.41-6.03,7.41-10.54,0-4.81-3.06-8.25-8.02-8.25-5.35,0-8.4,4.74-8.48,12.3h-10.39v-.99c0-12.38,7.49-20.62,19.4-20.62,9.85,0,18.33,6.34,18.33,16.73Z"/>
      <path class="cls-1" d="M165.76,79.47h-10.31c-.84-4.05-3.74-6.65-7.18-6.65-6.65,0-9.78,7.71-10.24,16.27l.15.15c2.98-4.2,6.72-5.96,11.99-5.96,8.25,0,16.5,6.11,16.5,17.42s-7.64,19.55-18.71,19.55c-14.59,0-20.55-11.61-20.55-27.65,0-12.53,5.42-27.96,21.01-27.96,9.4,0,16.12,5.5,17.34,14.82ZM147.66,111.32c5.04,0,8.17-4.74,8.17-9.78s-2.52-10.08-8.25-10.08c-5.19,0-8.56,4.05-8.56,9.93,0,5.27,3.36,9.93,8.63,9.93Z"/>
    </g>
    <g>
      <path class="cls-1" d="M202.1,83.48v2.86h-4.63v12.6h-3.4v-12.6h-4.63v-2.86h12.67Z"/>
      <path class="cls-1" d="M206.63,83.48v5.83h.06c.69-1.15,1.99-1.86,3.29-1.86,2.84,0,4.07,1.41,4.07,4.5v6.99h-3.07v-6.37c0-1.82-.54-2.71-1.97-2.71-1.88,0-2.38,1.23-2.38,3.2v5.87h-3.07v-15.46h3.07Z"/>
      <path class="cls-1" d="M226.77,91.54c.19.74.26,1.43.26,1.97l-.02.58h-8.08c.09,1.93,1.04,2.84,2.73,2.84,1.17,0,2.21-.67,2.45-1.45h2.71c-.84,2.53-2.56,3.77-5.24,3.77-3.55,0-5.72-2.45-5.72-5.89s2.34-5.91,5.72-5.91c2.86,0,4.59,1.8,5.2,4.09ZM223.94,92.14c-.3-1.69-1.04-2.38-2.47-2.38s-2.4.91-2.53,2.38h5Z"/>
      <path class="cls-1" d="M238.58,83.48v12.6h7.53v2.86h-10.93v-15.46h3.4Z"/>
      <path class="cls-1" d="M258.07,91.54c.19.74.26,1.43.26,1.97l-.02.58h-8.08c.09,1.93,1.04,2.84,2.73,2.84,1.17,0,2.21-.67,2.45-1.45h2.71c-.84,2.53-2.55,3.77-5.24,3.77-3.55,0-5.72-2.45-5.72-5.89s2.34-5.91,5.72-5.91c2.86,0,4.59,1.8,5.2,4.09ZM255.23,92.14c-.3-1.69-1.04-2.38-2.47-2.38s-2.4.91-2.53,2.38h5Z"/>
      <path class="cls-1" d="M270.17,90.63v5.93c0,.89.11,1.93.39,2.38h-3.12c-.11-.35-.19-.71-.22-1.08-.87.91-2.19,1.39-3.77,1.39-2.29,0-3.81-1.19-3.81-3.36,0-1.62.78-2.69,2.58-3.16,1.15-.3,2.6-.37,3.55-.56.91-.19,1.32-.5,1.32-1.17,0-1.28-.93-1.49-1.97-1.49-1.28,0-1.95.52-2.06,1.69h-3.08c.13-2.45,2.14-3.75,5.28-3.75s4.89,1.1,4.89,3.18ZM264.61,97.19c1.65,0,2.49-.89,2.49-2.53v-1.19c-.28.26-.82.41-1.86.54-1.58.19-2.51.58-2.51,1.75,0,.89.54,1.43,1.88,1.43Z"/>
      <path class="cls-1" d="M283.47,83.48v15.46h-2.92v-1.43h-.04c-.67,1.15-1.86,1.73-3.4,1.73-3.33,0-5.02-2.81-5.02-6s1.73-5.8,4.96-5.8c1.34,0,2.64.58,3.31,1.67h.04v-5.63h3.07ZM277.86,96.93c1.75,0,2.64-1.36,2.64-3.62,0-2.04-.78-3.55-2.66-3.55-1.75,0-2.68,1.41-2.68,3.57,0,1.78.82,3.59,2.71,3.59Z"/>
      <path class="cls-1" d="M288.95,83.48v2.53h-3.07v-2.53h3.07ZM288.95,87.75v11.19h-3.07v-11.19h3.07Z"/>
      <path class="cls-1" d="M301.88,91.97v6.97h-3.08v-6.34c0-1.84-.54-2.73-1.97-2.73-1.91,0-2.38,1.26-2.38,3.25v5.82h-3.08v-11.19h2.92v1.56h.07c.74-1.19,1.99-1.86,3.44-1.86,2.84,0,4.07,1.39,4.07,4.53Z"/>
      <path class="cls-1" d="M312.01,89.24h.04v-1.49h2.92v10.5c0,2.9-1.69,4.94-5.78,4.94-2.6,0-4.83-1.28-4.96-3.59h3.05c.26,1.08,1.1,1.54,2.29,1.54,1.58,0,2.47-1,2.47-2.71v-1.54h-.04c-.61,1.06-1.84,1.73-3.36,1.73-3.23,0-4.79-2.36-4.79-5.63,0-2.86,1.62-5.54,4.81-5.54,1.6,0,2.64.61,3.33,1.8ZM309.44,96.3c1.67,0,2.62-1.36,2.62-3.12,0-1.56-.48-3.42-2.64-3.42-1.58,0-2.47,1.34-2.47,3.18s.71,3.36,2.49,3.36Z"/>
      <path class="cls-1" d="M327.2,83.48v15.46h-3.4v-15.46h3.4Z"/>
      <path class="cls-1" d="M340.36,91.97v6.97h-3.08v-6.34c0-1.84-.54-2.73-1.97-2.73-1.91,0-2.38,1.26-2.38,3.25v5.82h-3.08v-11.19h2.92v1.56h.07c.74-1.19,1.99-1.86,3.44-1.86,2.84,0,4.07,1.39,4.07,4.53Z"/>
      <path class="cls-1" d="M346.6,84.39v3.36h2.25v2.06h-2.25v5.54c0,1.04.26,1.3,1.3,1.3.35,0,.69-.02.95-.09v2.4c-.52.09-1.21.11-1.82.11-2.32,0-3.51-.71-3.51-2.71v-6.56h-1.86v-2.06h1.86v-3.36h3.07Z"/>
      <path class="cls-1" d="M360.7,91.54c.19.74.26,1.43.26,1.97l-.02.58h-8.08c.09,1.93,1.04,2.84,2.73,2.84,1.17,0,2.21-.67,2.45-1.45h2.71c-.84,2.53-2.55,3.77-5.24,3.77-3.55,0-5.72-2.45-5.72-5.89s2.34-5.91,5.72-5.91c2.86,0,4.59,1.8,5.2,4.09ZM357.86,92.14c-.3-1.69-1.04-2.38-2.47-2.38s-2.4.91-2.53,2.38h5Z"/>
      <path class="cls-1" d="M369.97,87.55v2.86c-.3-.06-.67-.11-1.1-.11-2.23,0-3.03,1.58-3.03,3.59v5.04h-3.08v-11.19h2.92v2.08h.04c.58-1.41,2.04-2.38,3.57-2.38.3,0,.52.06.67.11Z"/>
      <path class="cls-1" d="M382.07,91.97v6.97h-3.08v-6.34c0-1.84-.54-2.73-1.97-2.73-1.91,0-2.38,1.26-2.38,3.25v5.82h-3.08v-11.19h2.92v1.56h.07c.74-1.19,1.99-1.86,3.44-1.86,2.84,0,4.07,1.39,4.07,4.53Z"/>
      <path class="cls-1" d="M394.46,90.63v5.93c0,.89.11,1.93.39,2.38h-3.12c-.11-.35-.19-.71-.22-1.08-.87.91-2.19,1.39-3.77,1.39-2.29,0-3.81-1.19-3.81-3.36,0-1.62.78-2.69,2.58-3.16,1.15-.3,2.6-.37,3.55-.56.91-.19,1.32-.5,1.32-1.17,0-1.28-.93-1.49-1.97-1.49-1.28,0-1.95.52-2.06,1.69h-3.08c.13-2.45,2.14-3.75,5.28-3.75s4.89,1.1,4.89,3.18ZM388.9,97.19c1.65,0,2.49-.89,2.49-2.53v-1.19c-.28.26-.82.41-1.86.54-1.58.19-2.51.58-2.51,1.75,0,.89.54,1.43,1.88,1.43Z"/>
      <path class="cls-1" d="M400.74,84.39v3.36h2.25v2.06h-2.25v5.54c0,1.04.26,1.3,1.3,1.3.35,0,.69-.02.95-.09v2.4c-.52.09-1.21.11-1.82.11-2.32,0-3.51-.71-3.51-2.71v-6.56h-1.86v-2.06h1.86v-3.36h3.07Z"/>
      <path class="cls-1" d="M407.63,83.48v2.53h-3.07v-2.53h3.07ZM407.63,87.75v11.19h-3.07v-11.19h3.07Z"/>
      <path class="cls-1" d="M421.29,93.36c0,3.62-2.36,5.89-5.8,5.89s-5.78-2.36-5.78-5.89,2.27-5.91,5.78-5.91,5.8,2.36,5.8,5.91ZM415.49,96.93c1.82,0,2.73-1.36,2.73-3.57,0-1.82-.63-3.59-2.75-3.59-1.71,0-2.68,1.3-2.68,3.59s.95,3.57,2.71,3.57Z"/>
      <path class="cls-1" d="M433.79,91.97v6.97h-3.08v-6.34c0-1.84-.54-2.73-1.97-2.73-1.91,0-2.38,1.26-2.38,3.25v5.82h-3.08v-11.19h2.92v1.56h.07c.74-1.19,1.99-1.86,3.44-1.86,2.84,0,4.07,1.39,4.07,4.53Z"/>
      <path class="cls-1" d="M446.18,90.63v5.93c0,.89.11,1.93.39,2.38h-3.12c-.11-.35-.19-.71-.22-1.08-.87.91-2.19,1.39-3.77,1.39-2.29,0-3.81-1.19-3.81-3.36,0-1.62.78-2.69,2.58-3.16,1.15-.3,2.6-.37,3.55-.56.91-.19,1.32-.5,1.32-1.17,0-1.28-.93-1.49-1.97-1.49-1.28,0-1.95.52-2.06,1.69h-3.08c.13-2.45,2.14-3.75,5.28-3.75s4.89,1.1,4.89,3.18ZM440.61,97.19c1.65,0,2.49-.89,2.49-2.53v-1.19c-.28.26-.82.41-1.86.54-1.58.19-2.51.58-2.51,1.75,0,.89.54,1.43,1.88,1.43Z"/>
      <path class="cls-1" d="M451.72,83.48v15.46h-3.07v-15.46h3.07Z"/>
      <path class="cls-1" d="M204.25,108.97h-3.29c-.24-1.56-1.69-2.71-3.38-2.71-2.77,0-4.2,2.19-4.2,5.3,0,2.9,1.36,5.17,4.2,5.17,1.95,0,3.23-1.26,3.51-3.46h3.29c-.35,3.9-3.05,6.32-6.8,6.32-4.72,0-7.6-3.51-7.6-8.03s2.81-8.16,7.6-8.16c3.46,0,6.28,2.08,6.67,5.57Z"/>
      <path class="cls-1" d="M217.61,113.64c0,3.62-2.36,5.89-5.8,5.89s-5.78-2.36-5.78-5.89,2.27-5.91,5.78-5.91,5.8,2.36,5.8,5.91ZM211.81,117.21c1.82,0,2.73-1.36,2.73-3.57,0-1.82-.63-3.59-2.75-3.59-1.71,0-2.69,1.3-2.69,3.59s.95,3.57,2.71,3.57Z"/>
      <path class="cls-1" d="M229.33,109.59c.82-1.19,2.04-1.86,3.4-1.86,2.77,0,4.07,1.52,4.07,3.98v7.51h-3.07v-6.47c0-1.47-.22-2.6-1.88-2.6-1.45,0-2.06,1.02-2.06,2.81v6.26h-3.07v-6.6c0-1.45-.22-2.47-1.86-2.47-.71,0-2.08.5-2.08,2.55v6.52h-3.07v-11.19h2.9v1.52h.04c.87-1.23,2.04-1.82,3.42-1.82,1.67,0,2.75.69,3.27,1.86Z"/>
      <path class="cls-1" d="M250.62,113.75c0,3.07-1.69,5.78-4.92,5.78-1.39,0-2.62-.61-3.36-1.69h-.04v5.33h-3.07v-15.13h2.92v1.43h.04c.74-1.17,1.88-1.73,3.33-1.73,3.4,0,5.09,2.68,5.09,6.02ZM244.88,117.21c1.91,0,2.66-1.56,2.66-3.55,0-1.71-.65-3.62-2.71-3.62-1.69,0-2.64,1.34-2.64,3.62,0,2.01.82,3.55,2.69,3.55Z"/>
      <path class="cls-1" d="M263.7,113.64c0,3.62-2.36,5.89-5.8,5.89s-5.78-2.36-5.78-5.89,2.27-5.91,5.78-5.91,5.8,2.36,5.8,5.91ZM257.89,117.21c1.82,0,2.73-1.36,2.73-3.57,0-1.82-.63-3.59-2.75-3.59-1.71,0-2.68,1.3-2.68,3.59s.95,3.57,2.71,3.57Z"/>
      <path class="cls-1" d="M275.22,111.3h-2.92c-.09-1.08-.82-1.52-2.1-1.52-1.19,0-1.71.37-1.71,1.04,0,.71.67,1.08,2.4,1.43,2.27.45,3.1.8,3.77,1.36.58.52.87,1.17.87,2.01,0,2.88-2.49,3.9-5.11,3.9-3.05,0-5.17-1.3-5.26-3.94h2.92c0,1.26,1.08,1.88,2.36,1.88,1.04,0,2.01-.46,2.01-1.43,0-.82-.95-1.21-3.38-1.71-2.6-.54-3.66-1.43-3.66-3.01,0-2.38,1.73-3.59,4.87-3.59s4.74,1.26,4.94,3.57Z"/>
      <path class="cls-1" d="M280.48,103.77v2.53h-3.07v-2.53h3.07ZM280.48,108.03v11.19h-3.07v-11.19h3.07Z"/>
      <path class="cls-1" d="M286.81,104.68v3.36h2.25v2.06h-2.25v5.54c0,1.04.26,1.3,1.3,1.3.35,0,.69-.02.95-.09v2.4c-.52.09-1.21.11-1.82.11-2.32,0-3.51-.71-3.51-2.71v-6.56h-1.86v-2.06h1.86v-3.36h3.07Z"/>
      <path class="cls-1" d="M300.9,111.82c.19.74.26,1.43.26,1.97l-.02.58h-8.08c.09,1.93,1.04,2.84,2.73,2.84,1.17,0,2.21-.67,2.45-1.45h2.71c-.84,2.53-2.55,3.77-5.24,3.77-3.55,0-5.72-2.45-5.72-5.89s2.34-5.91,5.72-5.91c2.86,0,4.59,1.8,5.2,4.09ZM298.07,112.43c-.3-1.69-1.04-2.38-2.47-2.38s-2.4.91-2.53,2.38h5Z"/>
      <path class="cls-1" d="M312.49,111.3h-2.92c-.09-1.08-.82-1.52-2.1-1.52-1.19,0-1.71.37-1.71,1.04,0,.71.67,1.08,2.4,1.43,2.27.45,3.1.8,3.77,1.36.58.52.87,1.17.87,2.01,0,2.88-2.49,3.9-5.11,3.9-3.05,0-5.17-1.3-5.26-3.94h2.92c0,1.26,1.08,1.88,2.36,1.88,1.04,0,2.01-.46,2.01-1.43,0-.82-.95-1.21-3.38-1.71-2.6-.54-3.66-1.43-3.66-3.01,0-2.38,1.73-3.59,4.87-3.59s4.74,1.26,4.94,3.57Z"/>
      <path class="cls-1" d="M332.46,108.38h-3.29c-.11-1.56-1.02-2.34-3.03-2.34-1.26,0-2.36.54-2.36,1.75,0,1.13.65,1.32,4.11,2.21.71.17,1.52.37,2.21.65,1.6.65,2.88,1.86,2.88,3.98,0,2.92-2.32,4.96-6.43,4.96-3.23,0-6.58-1.56-6.58-5.39v-.11h3.29c0,2.19,1.8,2.86,3.4,2.86s3.03-.52,3.03-1.93c0-.97-.8-1.6-2.71-2.08-1.15-.3-2.12-.52-3.12-.84-2.34-.78-3.38-2.08-3.38-4.05,0-3.12,2.95-4.66,5.78-4.66,3.31,0,6.19,1.47,6.19,4.98Z"/>
      <path class="cls-1" d="M337.74,103.77v5.83h.06c.69-1.15,1.99-1.86,3.29-1.86,2.84,0,4.07,1.41,4.07,4.5v6.99h-3.08v-6.37c0-1.82-.54-2.71-1.97-2.71-1.88,0-2.38,1.23-2.38,3.2v5.87h-3.08v-15.46h3.08Z"/>
      <path class="cls-1" d="M358.75,113.64c0,3.62-2.36,5.89-5.8,5.89s-5.78-2.36-5.78-5.89,2.27-5.91,5.78-5.91,5.8,2.36,5.8,5.91ZM352.95,117.21c1.82,0,2.73-1.36,2.73-3.57,0-1.82-.63-3.59-2.75-3.59-1.71,0-2.68,1.3-2.68,3.59s.95,3.57,2.71,3.57Z"/>
      <path class="cls-1" d="M362.95,108.03l2.06,7.6h.04l1.86-7.6h2.99l1.91,7.58h.04l2.06-7.58h3.16l-3.53,11.19h-3.16l-1.99-7.51h-.04l-1.91,7.51h-3.18l-3.55-11.19h3.25Z"/>
    </g>
  </g>
</svg>